<?xml version="1.0" encoding="UTF-8" standalone="no"?>
<!-- Created with Inkscape (http://www.inkscape.org/) -->

<svg
   width="300"
   height="199.55811"
   viewBox="0 0 300 199.55811"
   version="1.1"
   id="svg1"
   xml:space="preserve"
   xmlns="http://www.w3.org/2000/svg"
   xmlns:svg="http://www.w3.org/2000/svg"><defs
     id="defs1" /><g
     id="layer2"
     transform="translate(1196.3925,-1620.561)"><path
       id="path101"
       style="fill:#dee0df;fill-opacity:1;stroke:none;stroke-width:2.25063"
       d="m -1105.3058,1620.561 c -28.3767,0.032 -32.7314,0.5546 -42.8409,5.2836 -6.1894,2.8948 -15.3305,9.7214 -20.3131,15.1699 -4.9826,5.4482 -11.2182,13.4527 -13.8597,17.7852 -2.6418,4.3324 -7.045,15.3012 -9.7849,24.3789 -4.2575,14.1052 -4.8276,20.1572 -3.9166,41.6365 0.8784,20.7253 2.162,27.8217 7.3234,40.4676 3.9157,9.5935 10.497,19.9719 17.5742,27.7153 6.2221,6.808 16.0976,14.8031 21.9481,17.7677 l 10.6375,5.389 51.0042,0.5891 c 28.0536,0.3245 52.2274,1.4084 53.7162,2.409 1.4884,1.001 5.7417,1.2686 9.4552,0.5936 3.7135,-0.6752 8.271,-1.1283 10.1279,-1.0067 1.857,0.1222 13.5038,0.4556 25.88221,0.7386 14.76229,0.3375 24.56675,-0.4837 28.49341,-2.3872 1.09163,-0.5289 2.12185,-1.1762 3.08584,-1.8463 -0.53183,0.032 -1.03344,0.032 -1.45948,-0.077 -2.50321,-0.5502 -6.49257,-1.8071 -8.86169,-2.7955 -2.92314,-1.2197 -3.81284,-1 -2.77362,0.681 0.84212,1.363 0.45499,3.1411 -0.85755,3.952 -1.31221,0.811 -3.79323,0.3055 -5.51669,-1.1253 -2.26559,-1.88 -4.37908,-1.9338 -7.63082,-0.1929 -2.47363,1.3241 -6.33277,2.3919 -8.58067,2.3697 -2.24757,-0.032 -5.51991,-0.9405 -7.27035,-2.0486 -1.75049,-1.1079 -6.62799,-1.4565 -10.83569,-0.7735 -5.6771,0.9212 -9.3363,0 -14.1938,-3.5959 -4.6061,-3.4054 -6.1614,-3.8366 -5.2443,-1.4462 0.7505,1.9555 0,3.5128 -1.7495,3.6659 -1.6801,0.1447 -4.0679,0.032 -5.3058,-0.2734 -1.2376,-0.2958 -6.2225,-0.4167 -11.0771,-0.2668 -5.3791,0.164 -10.4337,-1.1817 -12.9411,-3.4509 -2.263,-2.0478 -4.1144,-6.0996 -4.1144,-9.0025 0,-2.9025 1.0128,-5.2791 2.2505,-5.2791 1.2379,0 2.2508,-2.0739 2.2508,-4.6111 0,-2.5371 1.4447,-7.4071 3.2089,-10.818 1.7636,-3.4116 5.8623,-7.4093 9.108,-8.8884 3.2457,-1.4788 8.1305,-2.6813 10.8575,-2.6813 2.7267,0 8.3311,2.0675 12.4529,4.5803 4.1222,2.5119 6.9135,3.6251 6.2026,2.4749 -0.7106,-1.1501 0.3055,-2.7022 2.2549,-3.4507 1.9509,-0.7486 4.983,-1.3628 6.7386,-1.3628 1.9808,0 3.1939,2.3486 3.1959,6.1894 v 6.1891 l 3.9343,-7.8772 c 2.87553,-5.7566 5.63698,-8.0726 10.25978,-8.6025 3.47876,-0.3991 7.97327,0.6138 9.98709,2.2505 3.12892,2.5433 3.46171,2.4459 2.29034,-0.6856 -0.75402,-2.0154 -0.23151,-4.8006 1.15594,-6.1893 1.38906,-1.3888 6.16846,-2.5274 10.6247,-2.5274 4.45625,0 9.22374,1.1222 10.59351,2.4923 1.82057,1.8206 2.3942,1.3663 2.13632,-1.6881 -0.22829,-2.7134 1.02958,-4.0707 3.58712,-3.8681 2.16623,0.1704 3.93857,-0.5875 3.93857,-1.6877 0,-1.1007 2.02571,-4.0257 4.50126,-6.5017 1.96011,-1.9601 5.49065,-3.6193 8.67712,-4.2331 -1.25948,-0.9652 -2.58648,-1.8449 -3.82409,-2.4089 -4.08005,-1.8589 -7.16942,-1.7785 -12.23788,0.3215 -3.72827,1.5443 -7.3707,4.6788 -8.09706,6.9674 -1.01318,3.1933 -4.51059,4.5238 -15.03336,5.7146 -8.45301,0.9562 -15.24526,3.0861 -17.71502,5.5561 -2.42024,2.42 -5.85495,3.5239 -8.67294,2.7869 -2.5653,-0.6708 -7.1983,0.4414 -10.2948,2.4707 -4.343,2.8456 -5.6309,3.0022 -5.6309,0.69 0,-1.6488 1.266,-4.6897 2.8132,-6.7565 1.5586,-2.0817 18.10604,-8.4772 37.10047,-14.3433 18.85617,-5.8238 33.89789,-10.9782 33.42522,-11.4511 -0.47298,-0.4727 -14.90023,3.2585 -32.05834,8.2906 -17.15811,5.0322 -32.34255,9.152 -33.74645,9.152 -1.843,0 -1.9385,-2.4202 -0.3427,-8.7079 1.8771,-7.3945 3.453,-9.0572 10.45294,-11.0338 4.53278,-1.2794 20.10665,-5.1585 34.61235,-8.6199 14.50539,-3.4617 26.01594,-6.6491 25.57897,-7.0861 -0.43634,-0.4363 -15.58256,1.9698 -33.65834,5.3498 -18.07579,3.3804 -33.30372,5.7087 -33.83872,5.1739 -0.5351,-0.535 -1.2369,-7.5449 -1.5649,-15.5786 l -0.5978,-14.607 42.01907,-7.7366 c 23.11016,-4.2566 41.56569,-8.1945 41.01263,-8.7476 -0.55304,-0.553 -19.86741,0.8177 -42.92001,3.0463 -36.10329,3.4903 -42.19489,3.6102 -43.94029,0.8527 -1.1144,-1.761 -2.0392,-4.4662 -2.0617,-6.0134 -0.032,-1.5473 2.7501,-2.8817 6.1543,-2.9627 3.4038,-0.08 16.82337,-1.5618 29.82073,-3.2881 l 23.6317,-3.143 -23.6317,1.1517 c -12.99736,0.6331 -26.85193,1.709 -30.78793,2.3868 -6.5826,1.1338 -7.5369,0.4845 -11.9125,-8.0926 -2.6167,-5.1289 -8.2405,-13.1793 -12.4974,-17.8909 -4.2562,-4.7115 -7.0796,-9.2237 -6.2771,-10.0266 0.8032,-0.8032 18.2562,-1.5704 38.7841,-1.7054 20.5275,-0.1351 43.39682,-0.9994 50.8238,-1.9209 8.84368,-1.0975 -5.73406,-1.7885 -42.25219,-2.0046 -49.45951,-0.2925 -57.20971,-0.8382 -68.56941,-4.8311 -10.4839,-3.6848 -18.536,-4.5016 -44.393,-4.4791 z m 170.32705,123.5253 c 1.79517,1.3756 3.43117,2.9585 4.29033,4.3341 2.26237,3.6228 3.62474,3.8939 9.13018,1.8158 0.17041,-0.064 0.30867,-0.086 0.47459,-0.1447 -3.77554,-4.4756 -7.06941,-6.2727 -11.4816,-6.2727 -0.75467,0 -1.57524,0.1061 -2.4135,0.2669 z m 13.8951,6.0046 c 0.28938,0.3436 0.57428,0.6662 0.87042,1.0417 3.17072,4.0232 5.77103,6.1193 5.79353,4.6553 0.0321,-1.4637 2.01092,-3.2952 4.43986,-4.0662 0.16719,-0.051 0.35626,-0.08 0.536,-0.1222 -0.65658,-0.5575 -1.31157,-1.0692 -1.91639,-1.4505 -2.50898,-1.5836 -5.47618,-1.5771 -9.72342,-0.058 z m 11.63981,1.5076 c 1.57169,1.3345 3.14565,3.009 3.98712,4.3431 1.19356,1.892 1.51189,6.0581 0.70771,9.262 -0.80386,3.2035 -3.48777,6.4682 -5.96074,7.253 -2.50031,0.7935 -4.49676,3.4071 -4.49676,5.8858 0,1.8373 -1.42186,4.7405 -3.4376,7.2884 0.49517,-0.032 1.11832,0.067 1.91671,0.2766 2.49934,0.6536 5.41476,-0.8801 7.60027,-4.0003 1.95016,-2.784 3.02411,-5.9054 2.38681,-6.9363 -0.63697,-1.031 1.42925,-3.0553 4.59355,-4.4971 4.18004,-1.9045 5.75431,-4.3469 5.75431,-8.9321 0,-4.047 -1.64373,-7.1913 -4.58486,-8.7649 -2.35015,-1.2579 -6.01026,-1.7395 -8.46652,-1.1785 z m -9.20027,34.0323 c -0.83408,0.048 -1.27974,0.4862 -1.40193,1.5254 0.4775,-0.4987 0.97074,-0.98 1.40193,-1.5254 z m -1.40193,1.5254 c -0.26687,0.2797 -0.50835,0.5988 -0.78713,0.857 -3.09451,2.8681 -5.62633,6.6471 -5.62633,8.396 0,1.7489 -1.62218,5.4977 -3.60898,8.3344 -0.4045,0.5775 -0.80064,1.0784 -1.2,1.5341 2.98808,0.2282 5.58518,-0.7502 8.16716,-3.0859 3.43631,-3.1096 4.32345,-5.9926 3.46847,-11.262 -0.36463,-2.2472 -0.53022,-3.7804 -0.41319,-4.7736 z m -11.22244,19.1215 c -0.70128,-0.054 -1.41703,-0.1544 -2.16719,-0.3428 -3.14468,-0.7894 -5.71894,-2.6936 -5.71894,-4.2335 0,-1.5395 2.21382,-3.7977 4.91895,-5.0196 2.7048,-1.2221 5.29675,-3.7437 5.75848,-5.6002 0.57235,-2.3051 0.0482,-2.1264 -1.65304,0.5627 -1.4389,2.2727 -5.25721,3.9386 -9.02439,3.9386 -3.84275,0 -7.47199,-1.6203 -8.82246,-3.9386 -1.26173,-2.1663 -2.32217,-2.68 -2.36043,-1.143 -0.0386,1.5365 1.95529,4.0584 4.43116,5.6044 2.47555,1.5462 4.50126,4.5189 4.50126,6.607 0,1.571 -1.56334,4.1592 -3.77619,6.4749 0.76495,0 1.47652,0 2.33857,0.054 6.40576,0.462 9.08099,-0.119 11.57422,-2.963 z m -13.91279,2.9099 c -4.40029,-0.058 -7.25237,0.6759 -7.75848,2.1936 -0.3434,1.0308 -1.88937,2.5128 -3.83309,3.8636 2.64243,-0.1319 6.37617,-1.662 9.23114,-3.9077 0.83601,-0.6576 1.63247,-1.3874 2.36043,-2.1495 z m -134.76063,-180.1517 -5.5653,3.7099 c -3.0604,2.0398 -9.9212,7.8633 -15.2446,12.9411 -5.3234,5.0781 -12.5829,13.789 -16.1324,19.3591 -3.5495,5.5703 -8.2279,15.6982 -10.4003,22.5063 -2.1727,6.8083 -5.0022,13.0771 -6.2861,13.9301 -1.3299,0.8836 -2.1913,9.0822 -2,19.0603 0.2604,13.5405 1.1946,18.136 4.1234,20.2777 2.5168,1.8396 3.3457,4.5306 2.4705,8.0177 -0.8061,3.2109 0.7633,9.7424 4.044,16.8227 2.9492,6.3659 8.0103,13.3099 11.2443,15.4289 3.2341,2.119 5.3505,4.3819 4.7036,5.0289 -0.6471,0.647 -0.051,2.5324 1.3273,4.1936 v 0.032 c 1.3781,1.6614 2.0337,3.0199 1.4552,3.0199 -0.5787,0 -2.7514,-1.8823 -4.8311,-4.1803 -2.4743,-2.7341 -5.737,-3.8058 -9.4334,-3.0991 -3.5807,0.6846 -7.3549,-0.4617 -10.3125,-3.1343 -2.5659,-2.3187 -7.0951,-9.0116 -10.0662,-14.8707 -2.9714,-5.8588 -6.9144,-16.4504 -8.7607,-23.5395 -1.8463,-7.089 -3.3585,-19.5526 -3.3585,-27.6976 0,-8.1449 1.5167,-20.6223 3.3671,-27.7287 1.8512,-7.1057 5.439,-16.9874 7.974,-21.9565 2.5354,-4.9694 8.3215,-13.2925 12.8578,-18.4976 l 8.2463,-9.4639 -8.1804,7.5957 c -4.5013,4.1794 -11.2198,13.2944 -14.9282,20.2558 -3.7083,6.9611 -7.9633,17.5083 -9.4553,23.4382 -1.5366,6.1093 -3.8054,10.3974 -5.2353,9.8947 -1.3877,-0.4877 -2.2032,-2.6556 -1.8109,-4.8176 0.3967,-2.1874 -0.2862,-3.3132 -1.5431,-2.5363 -1.2418,0.7672 -2.3234,3.1505 -2.4045,5.2925 -0.08,2.1419 -0.7392,7.9778 -1.4591,12.972 -0.7206,4.9942 -0.283,14.1093 0.9759,20.2556 1.2588,6.1468 3.2613,14.9593 4.4481,19.5832 1.1872,4.6237 4.3676,12.7259 7.0685,18.005 2.7013,5.279 6.4572,10.7973 8.3434,12.2597 1.8862,1.4627 4.7446,2.1524 6.3562,1.5341 1.6112,-0.6183 3.5292,-0.1576 4.2594,1.0241 0.7303,1.1813 -0.6871,2.6711 -3.1472,3.3148 -2.4608,0.6434 -4.9832,0.3505 -5.6048,-0.655 -0.6212,-1.0055 -3.0369,-1.3319 -5.3717,-0.7212 -2.3347,0.6106 -4.9266,0 -5.7584,-1.3363 -0.8406,-1.3599 0.038,-2.4438 1.978,-2.4438 2.784,0 2.1361,-2.6231 -3.1999,-12.9411 -3.681,-7.1176 -8.2305,-18.9796 -10.1102,-26.3573 -1.8798,-7.3775 -3.42,-18.1264 -3.42,-23.8868 0,-5.7601 1.0354,-15.923 2.299,-22.585 1.2634,-6.6623 5.163,-18.242 8.6685,-25.733 3.5054,-7.491 9.7652,-17.6269 13.9083,-22.5195 l 7.534,-8.8925 -8.0794,7.5121 c -4.4427,4.1334 -10.6321,12.2356 -13.7542,18.0051 -3.1218,5.7693 -7.3575,16.3163 -9.4112,23.4339 -2.054,7.1176 -4.5845,12.9411 -5.6222,12.9411 -1.0382,0 -0.5536,-5.0581 1.0768,-11.2398 1.6309,-6.1823 5.1412,-15.7301 7.7981,-21.2186 2.6569,-5.4884 8.2299,-14.2768 12.3874,-19.5304 4.1572,-5.2536 11.4485,-11.9076 16.1983,-14.7828 7.5739,-4.5849 11.533,-5.2396 32.2034,-5.2396 z m 25.7371,34.3088 c 3.7923,0.086 7.0797,1.4151 11.4861,4.4003 4.3135,2.9225 10.0562,9.2582 12.7608,14.0796 2.7048,4.8219 6.135,15.2141 7.6224,23.0954 1.4868,7.8814 2.0476,18.5941 1.2437,23.8031 -0.8035,5.2093 -3.007,14.2028 -4.8968,19.9877 -1.8897,5.7842 -4.6545,11.5272 -6.1407,12.7607 -1.4866,1.2337 -5.4823,2.9411 -8.8794,3.7935 -5.2723,1.3235 -6.1762,0.855 -6.1762,-3.1955 0,-2.8134 -1.4366,-4.7475 -3.5341,-4.7475 -2.4135,0 -3.3192,1.6887 -2.844,5.3144 0.3826,2.9225 -0.6814,6.9736 -2.365,9.0025 -1.6839,2.029 -4.377,3.6881 -5.987,3.6881 -1.6103,0 -5.9084,-2.5077 -9.5521,-5.5739 -3.6436,-3.0659 -9.0057,-10.9151 -11.9124,-17.4424 -4.3467,-9.7598 -5.2749,-15.6658 -5.2749,-33.2493 0,-17.5941 0.9083,-23.2156 5.0771,-31.7378 2.7862,-5.696 7.9058,-13.0755 11.3761,-16.4005 3.4705,-3.3247 9.7578,-6.5971 13.9742,-7.2704 1.4357,-0.2283 2.7579,-0.3373 4.0222,-0.3087 z" /></g></svg>
